<?xml version="1.0" encoding="utf-8"?>
<!-- EC Logo Icon (without text) - extracted from eclogo.svg -->
<svg version="1.1" xmlns="http://www.w3.org/2000/svg" viewBox="0 671.4 85.8 85.6">
	<circle fill="#8EB245" cx="42.9" cy="714.2" r="11.5"/>
	<path fill="#8EB245" d="M40,692.6v-4.8c-12.3,1.3-22.2,11.2-23.5,23.5h4.8C22.6,701.6,30.3,694,40,692.6z"/>
	<path fill="#8EB245" d="M45.8,735.9v4.8c12.3-1.3,22.2-11.2,23.5-23.5h-4.8C63.2,726.9,55.5,734.5,45.8,735.9z"/>
	<path fill="#8EB245" d="M64.5,711.3h4.8C68,699,58.1,689.1,45.8,687.8v4.8C55.5,694,63.2,701.6,64.5,711.3z"/>
	<path fill="#8EB245" d="M21.3,717.1h-4.8c1.3,12.3,11.2,22.2,23.5,23.5v-4.8C30.3,734.5,22.6,726.9,21.3,717.1z"/>
	<path fill="#8EB245" d="M81,714.2c0,9.5-3.5,18.1-9.3,24.8l3.4,3.4c6.6-7.5,10.6-17.4,10.6-28.2c0-10.8-4.1-20.6-10.6-28.2l-3.4,3.4C77.5,696.1,81,704.7,81,714.2z"/>
	<path fill="#8EB245" d="M42.9,676.1c9.5,0,18.1,3.5,24.8,9.3l3.4-3.4c-7.5-6.6-17.4-10.6-28.2-10.6s-20.6,4.1-28.2,10.6l3.4,3.4C24.8,679.6,33.5,676.1,42.9,676.1z"/>
	<path fill="#8EB245" d="M4.8,714.2c0-9.5,3.5-18.1,9.3-24.8l-3.4-3.4C4.1,693.6,0,703.4,0,714.2c0,10.8,4.1,20.6,10.6,28.2L14,739C8.2,732.4,4.8,723.8,4.8,714.2z"/>
	<path fill="#8EB245" d="M42.9,752.3c-9.5,0-18.1-3.5-24.8-9.3l-3.4,3.4C22.2,753,32.1,757,42.9,757s20.6-4.1,28.2-10.6l-3.4-3.4C61,748.9,52.4,752.3,42.9,752.3z"/>
	<rect x="40" y="711.3" fill="#8EB245" width="5.8" height="5.8"/>
</svg>
